<svg width="3377" height="874" viewBox="0 0 3377 874" fill="none" xmlns="http://www.w3.org/2000/svg">
    <path d="M469.015 199.343C468.922 199.483 468.862 199.64 468.835 199.813C468.768 200.253 468.562 200.336 468.215 200.063C455.289 189.659 446.495 174.717 434.005 163.603C420.464 151.473 406.481 140.668 393.405 127.403C393.292 127.283 393.152 127.23 392.985 127.243C392.892 127.256 392.815 127.226 392.755 127.153C390.848 124.933 388.722 122.536 386.375 119.963C385.688 119.21 385.122 118.37 384.675 117.443C384.215 116.496 383.685 115.65 383.085 114.903C379.438 110.356 376.398 105.313 373.965 99.7731C370.577 92.1162 367.995 83.3649 366.795 75.0131C364.074 56.1852 362.236 47.1233 342.785 63.4531C327.305 76.4331 316.628 93.4765 310.755 114.583C309.302 119.803 308.388 125.656 308.015 132.143C307.405 142.793 307.865 153.083 309.885 163.523C310.892 168.75 311.948 173.316 313.055 177.223C314.715 183.056 317.488 189.74 321.375 197.273C327.205 208.553 333.705 219.003 341.885 228.953C346.472 234.166 351.288 239.17 356.335 243.963C360.495 247.923 365.658 252.123 371.825 256.563C378.612 261.45 393.407 271.354 400.227 276.168C393.533 275.085 385.137 273.145 380.188 271.949C375.238 270.754 363.96 267.742 358.725 265.903C353.49 264.064 344.352 261.086 337.505 256.993C331.798 253.586 326.745 250.096 322.345 246.523C313.485 239.323 305.432 230.71 298.185 220.683C283.445 200.313 272.055 176.763 269.015 152.483C266.282 130.596 268.138 109.443 274.585 89.0231C276.152 84.0565 278.468 78.6031 281.535 72.6631C288.022 60.0765 296.828 49.2865 307.955 40.2931C319.495 30.9631 332.355 23.6131 346.775 19.4031C354.602 17.1231 360.885 15.6998 365.625 15.1331C370.125 14.5931 374.882 14.0465 379.895 13.4931C380.808 13.3931 381.158 13.7898 380.945 14.6831C380.605 16.0698 379.965 17.3965 379.025 18.6631C371.752 28.4365 368.108 39.7065 368.095 52.4731C368.085 60.2831 368.365 67.6531 370.275 75.1731C372.862 85.3465 376.852 95.1331 382.245 104.533C385.012 109.353 388.735 114.51 393.415 120.003C399.535 127.19 405.445 133.133 411.145 137.833C417.465 143.046 423.338 147.916 428.765 152.443C438.032 160.176 447.582 169.996 457.415 181.903C462.388 187.936 466.255 193.75 469.015 199.343Z" fill="#039EDF"/>
    <path d="M438.735 48.0634C447.575 37.9234 462.155 36.4734 474.305 41.7934C488.615 48.0634 498.235 62.3933 503.395 77.1433C510.845 98.4333 511.395 121.463 507.305 143.773C506.205 149.773 505.212 155.373 504.325 160.573C503.885 163.16 503.288 165.57 502.535 167.803C502.471 167.988 502.363 168.155 502.222 168.29C502.081 168.425 501.909 168.525 501.723 168.581C501.536 168.637 501.339 168.647 501.148 168.611C500.957 168.575 500.778 168.493 500.625 168.373C498.025 166.323 496.295 163.153 494.435 160.403C493.242 158.623 491.842 156.78 490.235 154.873C486.395 150.293 482.755 145.553 478.495 141.263C470.355 133.043 462.682 125.15 455.475 117.583C448.182 109.917 442.518 102.787 438.485 96.1934C434.472 89.6334 431.912 82.76 430.805 75.5734C430.065 70.7134 429.805 65.9233 431.325 61.2533C432.938 56.2733 435.408 51.8767 438.735 48.0634Z" fill="#039EDF"/>
    <path d="M469.015 199.343C473.302 207.097 476.758 214.21 479.385 220.683C485.065 234.663 487.782 249.493 487.535 265.173C490.997 302.338 365.361 235.078 350.525 229.473C348.584 228.736 342.146 225.976 341.885 228.953C333.705 219.003 327.205 208.553 321.375 197.273C317.488 189.74 314.715 183.057 313.055 177.223C311.948 173.317 310.892 168.75 309.885 163.523C307.865 153.083 307.405 142.793 308.015 132.143C308.388 125.657 309.302 119.803 310.755 114.583C316.628 93.4766 327.305 76.4332 342.785 63.4532C345.096 61.5127 359.16 50.4557 365.685 47.897C363.085 64.1446 368.982 97.3199 383.085 114.903C398.519 134.11 415.616 147.13 434.005 163.603C446.495 174.717 455.289 189.659 468.215 200.063C468.562 200.337 468.768 200.253 468.835 199.813C468.862 199.64 468.922 199.483 469.015 199.343Z" fill="#FFC02B"/>
    <path d="M618.813 125.851C617.388 127.248 596.201 123.785 592.097 125.351C586.883 127.344 581.94 129.811 577.267 132.751C576.407 133.291 575.537 133.814 574.657 134.321C572.247 135.701 570.107 137.601 568.117 139.451C567.763 139.778 567.353 139.998 566.887 140.111C566.56 140.196 566.262 140.373 566.027 140.621C564.327 142.441 562.533 144.261 560.647 146.081C559.787 146.908 558.887 147.684 557.947 148.411C556.387 149.611 555.187 151.034 554.347 152.681C554.176 153.002 553.925 153.275 553.617 153.471C553.157 153.758 552.817 154.151 552.597 154.651C552.31 155.284 552.423 155.368 552.937 154.901L553.757 154.161C554.13 153.828 554.223 153.894 554.037 154.361C553.657 155.291 552.497 155.981 551.877 156.981C550.237 159.634 548.57 162.108 546.877 164.401C544.743 167.268 542.917 170.301 541.397 173.501C541.17 173.981 540.557 175.118 539.557 176.911C538.937 178.018 538.35 179.164 537.797 180.351C533.097 190.364 529.69 199.854 527.577 208.821C526.723 212.448 525.997 216.251 525.397 220.231C524.797 224.204 524.347 228.118 524.047 231.971C523.84 234.624 523.577 237.188 523.257 239.661C522.977 241.841 522.833 244.031 522.827 246.231C522.827 248.724 522.967 250.944 523.247 252.891C523.733 256.244 523.393 259.238 522.227 261.871C520.947 249.698 520.247 241.204 520.127 236.391C519.807 223.151 520.93 209.811 523.497 196.371C524.863 189.204 526.703 182.794 529.017 177.141C535.067 162.351 544.187 149.551 555.887 138.881C573.787 122.541 600.517 112.281 624.827 117.401C624.989 117.436 625.139 117.515 625.259 117.631C625.379 117.746 625.464 117.893 625.505 118.054C625.545 118.216 625.54 118.385 625.489 118.544C625.438 118.702 625.344 118.843 625.217 118.951C625.217 118.951 620.238 124.453 618.813 125.851Z" fill="#039EDF"/>
    <path d="M619.33 125.341C607.09 137.781 600.885 152.382 598.595 169.642C597.642 176.882 597.318 184.143 597.625 191.423C597.278 191.19 596.955 191.179 596.655 191.399C596.384 191.607 595.766 193.462 595.775 193.923C595.922 199.376 596.402 204.866 597.215 210.399C597.655 213.406 613.145 244.015 614.019 246.908C617.622 254.98 621.547 262.395 623.917 268.386C626.286 274.378 632.635 300.516 632.075 317.13C631.688 328.33 630.982 337.413 629.955 344.38C630.452 341.799 628.773 336.096 628.735 332.88C628.702 329.986 628.305 327.182 627.545 324.462C624.385 313.068 618.755 302.878 610.655 293.891C608.275 291.245 605.845 289.055 603.365 287.321C598.392 282.501 592.844 279.371 586.695 278.052C579.642 276.538 577.845 276.621 570.715 279.321C563.275 283.795 557.595 290.092 553.675 298.212C545.363 309.936 524.315 298.21 524.315 289.38L522.215 261.86C523.382 259.227 523.722 256.233 523.235 252.88C522.955 250.933 522.815 248.713 522.815 246.22C522.822 244.02 522.965 241.829 523.245 239.649C524.582 229.315 525.166 219.005 527.565 208.81C529.678 199.843 532.64 189.728 538.584 177.017C549.849 152.929 567.162 134.87 592.085 125.341C595.533 124.025 617.695 118.421 619.33 125.341Z" fill="#FFC02B"/>
    <path d="M597.625 191.423C599.078 205.543 602.328 218.733 607.375 230.993C610.562 238.753 615.152 249.087 621.145 261.993C620.369 262.94 621.418 265.751 620.055 264.863C618.692 263.976 617.468 259.79 615.795 257.403C611.88 251.609 608.741 245.167 605.765 238.843C602.034 229.87 598.63 220.072 597.215 210.403C596.402 204.87 595.922 199.377 595.775 193.923C595.766 193.463 596.385 191.611 596.655 191.403C596.955 191.183 597.278 191.19 597.625 191.423Z" fill="#039EDF"/>
    <path d="M584.395 277.603C580.628 277.016 576.931 277.333 573.425 278.3C568.555 279.968 568.307 282.089 566.795 278.443C566.162 276.916 565.658 275.4 565.285 273.893C560.643 254.948 554.651 228.735 560.935 209.883C561.102 209.39 561.288 209.383 561.495 209.863C561.935 210.89 562.188 211.956 562.255 213.063C562.822 222.663 564.185 231.676 566.345 240.103C569.385 251.943 574.245 262.93 580.925 273.063C582.289 275.147 582.789 275.864 584.395 277.603Z" fill="#EF4233"/>
    <path d="M404.765 338.134C404.558 339.047 404.168 339.42 403.595 339.254C388.958 335.091 379.109 319.898 365.055 313.493C361.125 311.714 357.954 310.394 353.175 308.623C339.647 303.611 324.385 299.951 311.745 292.923C309.425 291.633 306.855 290.663 304.445 289.173C274.137 270.549 241.791 307.049 241.791 307.049C241.791 307.049 241.655 308.617 241.675 309.203C241.715 310.49 241.388 310.98 240.695 310.673C233.568 293.507 231.492 275.83 234.465 257.643C237.035 241.953 245.755 224.723 259.695 216.333C260.208 216.02 260.772 215.8 261.385 215.673C261.568 215.635 261.757 215.638 261.939 215.681C262.121 215.724 262.291 215.807 262.437 215.924C262.583 216.04 262.702 216.187 262.784 216.355C262.867 216.523 262.912 216.707 262.915 216.893C263.142 225.753 264.725 234.5 267.665 243.133C269.672 249.04 272.772 254.847 276.965 260.553C284.938 271.413 295.122 279.833 307.515 285.813C314.145 289.013 321.015 291.783 328.235 293.903C332.155 295.057 336.252 296.317 340.525 297.683C350.452 300.857 359.918 304.763 368.925 309.403C382.798 316.55 394.745 326.127 404.765 338.134Z" fill="#039EDF"/>
    <path d="M406.705 234.353C390.882 222.285 362.754 172.034 361.482 160.264C389.338 182.858 422.787 199.916 439.17 210.095C455.553 220.275 470.277 235.897 474.635 242.113C478.993 248.329 486.007 260.193 487.727 264.279C487.727 276.949 486.788 295.563 485.415 304.123C484.042 312.682 479.688 327.599 474.495 338.573C471.595 344.703 468.915 350.853 464.745 356.373C464.212 357.073 463.602 357.656 462.915 358.123C462.779 358.213 462.621 358.266 462.458 358.276C462.295 358.285 462.132 358.251 461.986 358.177C461.84 358.102 461.717 357.99 461.629 357.853C461.541 357.715 461.491 357.556 461.485 357.393C461.405 354.726 461.032 352.356 460.365 350.283C455.005 333.609 446.425 318.669 434.625 305.463C423.212 292.696 409.082 281.246 392.235 271.113C385.415 266.299 378.612 261.449 371.825 256.563C365.658 252.123 360.495 247.923 356.335 243.963C351.288 239.169 346.472 234.166 341.885 228.953C342.15 225.935 348.498 228.703 350.525 229.473C367.851 236.018 384.613 240.501 403.015 244.153C411.234 245.784 422.528 246.42 406.705 234.353Z" fill="#EF4233"/>
    <path d="M404.765 338.133C407.771 341.493 410.235 345.147 412.155 349.093C411.95 350.15 401 339.944 398.195 338.803C394.508 337.31 390.226 341.311 384.515 341.851C378.804 342.391 289.144 330.443 260.605 346.063C252.145 334.983 245.508 323.187 240.695 310.673C241.388 310.98 241.715 310.49 241.675 309.203C241.655 308.617 241.565 308.077 241.405 307.583C237.157 294.476 237.572 278.678 238.355 265.133C239.047 253.055 244.771 229.92 256.795 225.203C257.981 224.73 259.155 225.213 260.315 226.653C260.437 226.807 260.525 226.986 260.571 227.178C261.01 228.983 261.285 231.632 261.305 233.503C261.428 241.956 266.281 250.946 270.825 257.753C281.498 273.695 294.937 283.578 311.745 292.923C326.604 301.185 351.755 306.803 361.765 311.583C371.775 316.363 389.625 328.464 392.585 330.443C395.544 332.423 404.057 341.262 404.765 338.133Z" fill="#FFC02B"/>
    <path d="M782.383 254.249C780.681 255.832 766.955 251.732 765.144 251.732C749.404 253.424 736.341 257.77 722.595 266.523C716.982 270.097 712.772 273.56 709.965 276.913C708.875 278.203 707.345 278.443 706.555 280.073C705.855 281.54 704.995 282.637 703.975 283.363C703.408 283.77 702.918 284.253 702.505 284.813C699.972 288.247 697.752 291.583 695.845 294.823C695.438 295.517 695.052 296.187 694.685 296.833C693.445 299.013 692.305 301.067 691.265 302.993C690.978 303.52 690.708 304.043 690.455 304.563C686.195 313.263 682.958 321.207 680.745 328.393C678.885 334.413 677.102 342.1 675.395 351.453C674.175 356.987 673.328 361.963 672.855 366.383C672.522 369.477 672.135 372.047 671.695 374.093C671.595 374.527 671.442 374.753 671.235 374.773C670.982 374.8 670.675 374.57 670.315 374.083C671.585 362.863 671.035 349.303 671.955 341.373C675.015 314.813 685.532 291.65 703.505 271.883C707.865 267.083 712.288 263.19 716.775 260.203C721.255 257.23 726.792 254.337 733.385 251.523C749.252 244.75 766.152 243.583 784.085 248.023C785.172 248.29 786.152 248.76 787.025 249.433C787.338 249.673 787.342 249.917 787.035 250.163C787.035 250.163 784.085 252.666 782.383 254.249Z" fill="#039EDF"/>
    <path d="M782.44 254.207C769.64 264.187 762.492 275.246 757.485 290.893C753.698 302.719 752.265 314.689 753.185 326.803C753.825 335.269 755.192 344.256 757.285 353.763C759.572 364.143 760.922 371.103 761.335 374.643C761.522 376.256 761.762 377.979 762.055 379.813C762.555 382.933 762.818 384.656 762.845 384.983C764.418 403.596 762.935 420.399 758.395 435.393C754.102 449.593 746.622 463.273 735.955 476.433C727.86 480.014 739.798 458.934 741.785 454.573C760.779 412.955 739.31 390.227 705.265 365.773C697.484 360.194 685.432 350.132 675.395 351.453C677.102 342.099 678.885 334.413 680.745 328.393C682.958 321.206 686.195 313.263 690.455 304.563C693.82 297.656 697.95 290.986 702.505 284.813C707.722 277.745 715.318 270.406 722.657 265.734C733.21 259.014 740.125 255.729 750.752 253.015C758.572 250.365 777.542 251.852 782.44 254.207Z" fill="#FFC02B"/>
    <path d="M553.675 298.213C550.035 306.58 548.098 315.473 547.865 324.893C547.632 334.727 548.012 344.66 549.005 354.693C551.325 378.06 555.775 401.477 562.355 424.943C562.885 426.833 562.975 428.793 563.685 430.693C564.278 432.273 564.695 433.837 564.935 435.383C564.953 435.508 564.935 435.635 564.883 435.749C564.831 435.864 564.748 435.961 564.643 436.028C564.538 436.096 564.417 436.132 564.293 436.131C564.169 436.13 564.048 436.093 563.945 436.023C560.175 433.553 556.145 431.593 552.395 429.273C542.435 423.1 532.945 418.213 523.925 414.613C514.758 410.947 504.428 407.42 492.935 404.033C491.748 403.68 490.522 403.383 489.255 403.143C489.101 403.115 488.958 403.047 488.839 402.946C488.72 402.846 488.63 402.715 488.577 402.568C488.524 402.421 488.511 402.263 488.539 402.11C488.567 401.956 488.634 401.812 488.735 401.693C500.462 387.873 509.028 373.633 514.435 358.973C519.662 344.8 522.808 331.317 523.875 318.523C524.495 311.023 524.642 301.31 524.315 289.383C526.928 291.653 525.443 286.893 526.845 282.933C529.81 274.367 553.228 292.226 553.675 298.213Z" fill="#EF4233"/>
    <path d="M603.365 287.323C605.845 289.057 608.275 291.247 610.655 293.893C618.755 302.88 624.385 313.07 627.545 324.463C629.03 329.777 630.974 339.094 629.955 344.383C627.651 357.05 621.077 370.423 620.125 382.973C613.005 368.933 606.328 353.11 600.095 335.503C596.922 326.557 595.412 317.84 595.565 309.353C597.044 312.365 605.22 293.005 603.365 287.323Z" fill="#EF4233"/>
    <path d="M412.155 349.093C413.44 351.105 418.548 358.967 420.335 362.893C423.302 369.433 425.938 376.097 428.245 382.883C429.272 385.903 429.828 389.083 429.915 392.423C429.935 392.99 429.662 393.257 429.095 393.223C424.242 392.937 419.765 392.63 415.665 392.303C403.945 391.373 391.975 391.753 380.635 392.623C373.748 393.15 367.185 393.4 360.945 393.373C343.645 393.313 326.422 390.097 309.275 383.723C304.968 382.123 300.955 380.193 297.235 377.933C283.108 369.347 266.833 357.424 254.405 337.488C258.804 337.063 258.195 337.659 262.885 337.063C268.532 336.35 273.595 335.647 278.075 334.953C280.271 334.614 294.849 331.078 293.601 330.001C292.414 328.974 291.505 327.623 290.365 326.303C281.632 316.197 274.425 304.89 268.745 292.383C268.714 292.322 271.747 297.562 277.195 303.373C279.288 305.6 281.802 307.95 284.735 310.423C287.362 312.643 290.192 314.623 293.225 316.363C300.872 320.757 309.138 324.217 318.025 326.743C321.632 327.763 325.368 328.29 329.235 328.323C339.928 328.423 349.418 328.703 357.705 329.163C362.852 329.45 369.102 330.183 376.455 331.363C380.342 331.99 384.015 333.013 387.475 334.433C390.935 335.853 394.508 337.31 398.195 338.803C400.934 339.917 410.87 347.082 412.155 349.093Z" fill="#EF4233"/>
    <path d="M595.565 309.353C595.412 317.84 596.922 326.556 600.095 335.503C606.328 353.11 613.005 368.933 620.125 382.973C629.465 402.433 641.385 420.243 652.985 438.393L696.625 508.233C705.298 522.333 710.868 531.676 713.335 536.263C719.842 548.356 726.318 558.913 732.765 567.933C734.898 570.92 737.102 573.993 739.375 577.153C745.455 585.603 753.435 594.483 760.875 600.293C765.822 604.153 770.842 607.136 775.935 609.243C778.635 610.356 781.768 611.1 785.335 611.473C790.008 611.953 794.645 612.256 799.245 612.383C806.052 612.57 813.578 612.323 821.825 611.643C829.052 611.05 835.628 610.06 841.555 608.673C869.495 602.163 895.155 589.903 915.985 569.903C924.498 561.73 932.575 553.366 940.215 544.813C940.542 544.453 940.942 544.23 941.415 544.143C948.035 542.923 954.365 545.283 956.585 551.713C959.275 559.483 951.405 566.923 946.595 571.783C937.325 581.143 927.145 591.463 916.385 600.433C909.455 606.213 902.825 611.463 894.785 616.403C877.298 627.163 860.708 635.926 845.015 642.693C835.375 646.853 826.508 650.88 818.415 654.773C814.548 656.626 810.162 659.273 805.255 662.713C800.442 666.086 796.735 669.163 794.135 671.943C787.495 679.016 782.722 686.93 779.815 695.683C773.975 713.283 777.335 733.753 785.755 750.073C788.668 755.713 792.108 761.79 796.075 768.303C797.415 770.513 798.105 773.863 797.395 776.443C795.595 783.023 791.635 787.63 785.515 790.263C783.025 791.333 779.975 791.573 777.515 790.443C772.955 788.336 769.205 785.233 766.265 781.133C763.435 777.183 760.655 773.183 757.395 769.603C746.935 758.116 736.228 748.14 725.275 739.673C720.062 735.646 714.202 731.873 707.695 728.353C691.562 719.626 674.745 712.536 657.245 707.083C657.052 706.69 656.765 706.376 656.385 706.143C656.332 706.11 656.318 706.063 656.345 706.003C656.385 705.916 656.452 705.873 656.545 705.873C657.012 705.9 657.028 705.82 656.595 705.633C656.075 705.406 655.628 705.07 655.255 704.623C654.722 703.976 654.168 703.353 653.595 702.753C653.508 702.666 653.488 702.566 653.535 702.453C653.555 702.42 653.585 702.403 653.625 702.403C653.925 702.41 653.992 702.286 653.825 702.033C653.632 701.746 653.378 701.526 653.065 701.373C652.785 701.233 652.568 701.016 652.415 700.723C652.122 700.143 652.182 699.643 652.595 699.223C652.828 698.99 652.842 698.74 652.635 698.473C651.982 697.626 651.318 696.826 650.645 696.073C650.005 695.353 649.655 694.506 649.595 693.533C649.522 692.446 649.472 691.41 649.445 690.423C649.438 690.085 649.326 689.76 649.125 689.493C648.518 688.653 648.172 687.733 648.085 686.733C648.058 686.42 647.938 686.15 647.725 685.923C642.952 680.856 638.165 675.83 633.365 670.843C633.105 670.57 632.848 670.296 632.595 670.023C630.455 667.683 628.502 665.546 626.735 663.613C626.595 663.46 626.418 663.383 626.205 663.383H625.785C625.465 663.383 625.222 663.243 625.055 662.963C622.522 658.576 620.752 655.8 619.745 654.633C617.298 651.806 615.192 648.88 613.425 645.853C613.152 645.386 613.152 644.933 613.425 644.493C613.578 644.246 613.635 643.976 613.595 643.683L613.405 642.373C618.138 638.933 621.945 634.706 624.825 629.693C624.925 629.52 624.882 629.396 624.695 629.323C613.045 624.443 604.705 616.103 607.655 602.513C609.262 595.086 610.722 588.08 612.035 581.493C613.055 576.326 613.652 569.436 613.825 560.823C613.978 553.05 613.815 545.053 613.335 536.833C612.935 529.966 611.678 521.75 609.565 512.183C607.232 501.643 604.715 490.893 602.015 479.933C598.505 465.673 593.105 452.173 589.045 438.223C586.132 428.223 583.042 417.596 579.775 406.343C576.262 394.236 573.305 381.18 570.905 367.173C569.818 360.806 569.185 352.323 569.005 341.723C568.825 331.363 568.665 320.763 570.835 311.553C571.895 307.043 574.575 303.613 578.265 300.913C579.065 300.333 580.018 299.863 581.125 299.503C582.145 299.17 583.175 298.856 584.215 298.563C585.788 298.11 587.845 298.276 590.385 299.063C590.697 299.161 590.967 299.357 591.155 299.623C593.275 302.65 594.745 305.893 595.565 309.353ZM713.455 654.583C710.642 648.97 706.165 644.78 700.025 642.013C692.005 638.4 684.128 639.116 676.395 644.163C672.035 647.01 669.085 650.72 667.545 655.293C664.458 664.466 665.672 672.843 671.185 680.423C679.005 691.183 694.265 693.713 705.065 685.733C711.565 680.92 715.062 673.973 715.555 664.893C715.755 661.193 715.055 657.756 713.455 654.583Z" fill="#039EDF"/>
    <path d="M111.965 325.663C110.222 325.755 110.32 326.981 110.895 328.413C115.49 339.849 124.921 354.761 132.575 359.333C140.229 363.906 160.835 377.822 209.605 381.423C233.725 383.204 230.257 384.34 240.675 390.293C240.675 391.735 241.3 397.591 236.131 396.428C231.398 395.375 223.66 396.455 219.786 396.428C214.386 396.395 208.802 396.368 203.442 396.428C195.182 396.521 184.405 391.19 170.525 389.023C156.937 386.938 150.27 407.57 139.545 404.183C124.645 393.653 109.755 377.803 103.345 360.663C97.9317 346.197 97.885 331.737 103.205 317.283C104.092 314.87 105.325 312.717 106.905 310.823C108.618 308.77 109.382 309.077 109.195 311.743C108.902 316.01 109.825 320.65 111.965 325.663Z" fill="#FFC02B"/>
    <path d="M735.955 476.433C731.755 481.667 728.042 485.85 724.815 488.983C719.268 494.363 713.732 499.757 708.205 505.163C706.641 506.688 701.84 510.712 699.42 512.691C698.056 510.824 698.211 510.673 696.625 508.233L651.843 436.564C652.892 434.395 653.064 433.889 653.565 432.693C657.198 424.033 660.235 416.263 662.675 409.383C666.668 398.157 669.215 386.39 670.315 374.083C670.675 374.57 670.982 374.8 671.235 374.773C671.442 374.753 671.595 374.527 671.695 374.093C672.135 372.047 672.522 369.477 672.855 366.383C673.592 359.503 675.18 352.77 676.407 345.971C680.153 347.754 683.451 348.03 690.917 353.503C698.383 358.975 700.121 362.085 705.265 365.773C705.738 366.113 705.992 365.993 706.025 365.413C706.858 350.224 708.707 334.635 711.157 319.611C725.37 329.782 737.57 357.148 743.545 373.763C744.772 377.157 745.938 380.613 747.045 384.133C748.232 387.873 749.022 391.54 749.415 395.133C750.483 404.833 751.222 412.928 750.275 422.403C748.592 441.013 740.332 458.346 735.955 476.433Z" fill="#EF4233"/>
    <path d="M111.965 325.663C112.572 327.797 113.422 329.87 114.515 331.883C122.175 345.973 131.995 356.283 146.995 363.453C159.675 369.507 172.998 373.163 186.965 374.423C194.225 375.083 201.245 375.833 208.365 376.473C228.058 378.253 244.942 386.11 259.015 400.043C258.822 400.243 258.802 400.44 258.955 400.633C259.095 400.813 259.072 400.973 258.885 401.113C258.712 401.233 258.492 401.193 258.225 400.993C252.152 396.387 246.302 392.82 240.675 390.293C234.075 386.522 225.508 383.705 217.935 382.613C203.001 380.41 179.782 378.688 171.875 377.143C163.968 375.598 148.341 369.402 142.307 366.223C134.859 362.3 125.208 354.903 120.32 347.762C115.601 340.886 111.033 329.355 110.717 328.585C110.401 327.816 110.212 326.509 110.595 326.023C110.978 325.538 111.868 325.668 111.965 325.663Z" fill="#039EDF"/>
    <path d="M38.655 375.513C37.515 377.64 37.3483 379.93 38.155 382.383C45.2134 403.903 73.6152 425.014 83.8682 429.081C94.1212 433.148 117.717 438.081 125.222 439.666C132.727 441.251 146.577 444.79 157.025 448.603C161.807 450.359 169.796 454.919 171.455 451.823L188.825 462.573C189.398 463.953 188.535 463.913 186.235 462.453C183.274 460.592 172.796 454.773 166.705 455.473C135.655 459.042 104.741 495.976 77.735 496.153C68.38 496.228 59.5301 490.701 50.715 488.003C30.8217 474.99 17.415 457.786 10.495 436.393C7.80166 428.066 6.66499 418.46 7.08499 407.573C7.60499 393.953 10.685 380.963 17.215 368.843C21.535 360.823 28.775 354.283 36.195 348.913C36.8417 348.446 37.1083 348.606 36.995 349.393C35.6883 358.28 36.2417 366.986 38.655 375.513Z" fill="#FFC02B"/>
    <path d="M38.655 375.513C42.855 388.727 49.275 399.453 57.915 407.693C64.0417 413.527 72.0383 418.827 81.905 423.593C90.085 427.547 99.785 430.573 111.005 432.673C124.245 435.153 134.982 437.533 143.215 439.813C152.648 442.427 162.062 446.43 171.455 451.823C171.141 452.409 171.029 453.916 168.96 453.226C162.51 451.07 156.41 448.094 149.815 446.343C141.638 444.17 128.551 441.653 124.339 441.032C120.126 440.41 104.363 437.141 94.065 434.563C85.5694 432.459 74.6626 426.662 67.465 421.573C57.8959 414.835 43.0193 399.836 39.615 388.153C38.4541 384.243 36.5907 379.364 38.655 375.513Z" fill="#039EDF"/>
    <path d="M240.675 390.293C246.302 392.82 251.476 395.867 257.549 400.474C258.541 401.217 258.736 400.332 259.015 400.043C262.062 402.783 264.975 405.63 267.755 408.583C269.122 410.036 270.795 411.226 272.775 412.153C272.876 412.2 272.963 412.271 273.028 412.361C273.093 412.451 273.135 412.556 273.148 412.667C273.161 412.777 273.145 412.889 273.103 412.992C273.06 413.094 272.992 413.184 272.905 413.253C272.472 413.6 271.992 413.89 271.465 414.123C257.535 420.453 242.515 426.343 227.985 428.223C214.512 429.956 201.308 429.176 188.375 425.883C171.225 421.523 153.844 414.261 139.545 404.183C136.894 402.315 135.511 401.175 132.552 398.87C141.43 397.366 152.895 393.884 158.745 389.743C159.445 389.25 159.438 388.763 158.725 388.283L146.759 380.316C155.065 384.129 166.713 388.438 170.525 389.023C178.188 390.219 237.138 398.797 239.295 393.353C239.78 392.139 239.162 391.268 240.675 390.293Z" fill="#EF4233"/>
    <path d="M613.405 642.373L613.595 643.683C613.635 643.977 613.578 644.247 613.425 644.493C613.152 644.933 613.152 645.387 613.425 645.853C615.192 648.88 617.298 651.807 619.745 654.633C620.752 655.8 622.522 658.577 625.055 662.963C625.222 663.243 625.465 663.383 625.785 663.383H626.205C626.418 663.383 626.595 663.46 626.735 663.613C628.502 665.547 630.455 667.683 632.595 670.023C632.848 670.297 633.105 670.57 633.365 670.843C638.165 675.83 642.952 680.857 647.725 685.923C647.938 686.15 648.058 686.42 648.085 686.733C648.172 687.733 648.518 688.653 649.125 689.493C649.326 689.76 649.438 690.085 649.445 690.423C649.472 691.41 649.522 692.447 649.595 693.533C649.655 694.507 650.005 695.353 650.645 696.073C651.318 696.827 651.982 697.627 652.635 698.473C652.842 698.74 652.828 698.99 652.595 699.223C652.182 699.643 652.122 700.143 652.415 700.723C652.568 701.017 652.785 701.233 653.065 701.373C653.378 701.527 653.632 701.747 653.825 702.033C653.992 702.287 653.925 702.41 653.625 702.403C653.585 702.403 653.555 702.42 653.535 702.453C653.488 702.567 653.508 702.667 653.595 702.753C654.168 703.353 654.722 703.977 655.255 704.623C655.628 705.07 656.075 705.407 656.595 705.633C657.028 705.82 657.012 705.9 656.545 705.873C656.452 705.873 656.385 705.917 656.345 706.003C656.318 706.063 656.332 706.11 656.385 706.143C656.765 706.377 657.052 706.69 657.245 707.083C643.155 703.293 627.095 698.523 615.225 694.263C597.818 688.023 582.082 679.21 568.015 667.823C562.675 663.513 557.135 659.153 551.945 654.533C543.038 646.607 532.642 636.79 520.755 625.083C515.675 620.073 510.205 614.883 504.725 610.503C488.812 597.777 475.222 587.66 463.955 580.153C449.688 570.64 432.928 562.62 413.675 556.093C407.982 554.167 402.358 552.667 396.805 551.593C384.545 549.223 372.345 547.333 359.655 546.883C346.948 546.423 335.238 546.68 324.525 547.653C315.725 548.453 306.308 550.033 296.275 552.393C279.662 556.293 263.778 562.3 248.625 570.413C238.438 575.867 229.412 581.57 221.545 587.523C210.905 595.573 200.005 604.263 190.775 614.003C179.288 626.13 170.088 636.86 163.175 646.193C157.388 654.013 151.062 663.183 144.195 673.703C140.868 678.81 137.432 684.453 133.885 690.633C118.212 717.92 103.938 746.083 91.065 775.123C84.9983 788.803 78.4383 803.837 71.385 820.223C68.8717 826.077 66.385 832.2 63.925 838.593C63.3317 840.133 62.485 841.62 61.385 843.053C59.825 845.083 56.295 845.173 55.615 842.283C52.915 830.917 51.4783 819.93 51.305 809.323C51.025 791.957 52.1183 775.717 54.585 760.603C56.485 748.923 58.9983 737.223 62.125 725.503C64.3717 717.077 67.1883 707.9 70.575 697.973C72.8483 691.307 75.1917 685.067 77.605 679.253C85.3517 660.587 93.7417 642.95 102.775 626.343C106.655 619.213 110.665 610.193 115.565 602.683C121.275 593.933 126.895 585.163 133.175 576.553C142.275 564.08 151.262 552.573 160.135 542.033C166.365 534.633 173.115 526.913 179.695 520.253C197.682 502.053 218.905 484.67 243.365 468.103C262.372 455.23 283.528 445.093 306.835 437.693C317.435 434.323 328.165 431.193 339.355 429.143C355.362 426.21 368.155 424.387 377.735 423.673C384.628 423.16 395.475 422.99 410.275 423.163C442.568 423.55 473.202 428.853 502.175 439.073C522.535 446.243 541.555 455.163 559.165 467.693C564.078 471.2 569.532 475.333 575.525 480.093C578.645 482.573 578.395 487.673 579.225 491.213C582.718 506.3 584.732 521.14 585.265 535.733C585.885 552.833 585.385 568.923 581.685 585.603C579.695 594.593 577.425 603.223 576.635 612.943C576.302 617.037 576.538 620.773 577.345 624.153C579.095 631.513 584.895 638.433 591.025 642.553C597.305 646.783 607.045 645.513 613.405 642.373Z" fill="#039EDF"/>
    <path d="M188.825 462.573C189.411 462.953 191.178 463.822 191.765 464.609C192.238 465.236 192.001 465.721 191.448 466.274C186.878 470.794 182.365 475.153 177.115 478.863C175.462 480.037 173.692 481.417 171.805 483.003C167.505 486.63 162.605 489.84 157.105 492.633C150.358 496.06 142.245 498.977 132.765 501.383C126.298 503.023 119.585 503.913 112.625 504.053C101.112 504.293 91.1917 503.53 82.8651 501.763C71.9117 499.45 61.195 494.863 50.715 488.003C66.9083 492.961 83.9372 488.715 93.5951 475.023C93.8084 474.723 93.7484 474.497 93.4151 474.343C86.4351 471.07 80.0217 467.6 74.1751 463.933C70.5617 461.667 67.3584 459.02 64.5651 455.993C62.3651 453.613 60.3751 451.743 58.0951 449.383C55.8151 447.023 48.2778 437.505 47.1793 435.108C48.8437 437.072 56.2884 444.39 60.3751 446.463C64.8351 448.717 69.5417 450.477 74.4951 451.743C83.0417 453.923 91.5717 455.063 100.085 455.163C118.226 455.375 135.259 452.105 153.414 453.386C157.474 453.666 173.26 454.828 176.943 455.212C180.53 457.422 188.239 462.194 188.825 462.573Z" fill="#EF4233"/>
    <path d="M873.245 463.413C869.955 463.853 868.415 462.423 865.865 461.253C865.058 460.88 864.212 460.613 863.325 460.453C861.925 460.193 860.578 459.827 859.285 459.353C857.325 458.633 855.255 458.09 853.075 457.723C851.095 457.397 849.025 457.22 846.865 457.193C843.138 457.153 839.675 457.23 836.475 457.423C833.888 457.577 830.428 458.18 826.095 459.233C825.362 459.413 824.612 459.547 823.845 459.633C823.045 459.727 822.328 460 821.695 460.453C820.575 461.26 819.335 461.69 817.975 461.743C817.595 461.757 817.238 461.86 816.905 462.053C815.605 462.813 814.235 463.3 812.795 463.513C812.388 463.573 812.038 463.743 811.745 464.023C811.072 464.65 810.312 465.07 809.465 465.283C807.315 465.823 805.795 467.213 803.825 468.123C802.972 468.517 802.245 469.047 801.645 469.713C800.618 470.873 799.318 471.8 797.745 472.493C797.455 472.616 797.22 472.84 797.085 473.123C796.778 473.743 796.302 474.153 795.655 474.353C795.348 474.44 795.078 474.59 794.845 474.803C792.912 476.537 790.958 478.6 788.985 480.993C786.105 484.487 782.908 488.497 779.395 493.023C778.395 494.303 777.415 495.627 776.455 496.993C774.002 500.707 771.592 504.49 769.225 508.343C767.092 511.817 765.288 515.49 763.815 519.363C763.734 519.585 763.572 519.769 763.362 519.88C763.152 519.991 762.907 520.021 762.675 519.963C762.648 519.957 762.548 519.657 762.375 519.063C763.562 515.683 764.752 512.31 765.945 508.943C767.432 504.763 768.765 501.453 769.945 499.013C777.885 482.623 791.855 466.663 808.465 459.023C820.525 453.477 832.608 451.017 844.715 451.643C855.155 452.183 864.665 456.107 873.245 463.413Z" fill="#039EDF"/>
    <path d="M873.245 463.413C877.265 466.68 880.685 470.49 883.505 474.843C883.579 474.96 883.618 475.096 883.618 475.234C883.619 475.373 883.58 475.509 883.507 475.626C883.435 475.744 883.33 475.839 883.206 475.9C883.082 475.962 882.943 475.987 882.805 475.973C863.115 473.893 847.415 479.563 836.695 496.553C833.335 501.88 830.808 506.866 829.115 511.513C826.948 517.44 824.988 522.236 823.235 525.903C810.797 522.807 785.689 501.038 776.455 496.993C777.415 495.626 778.395 494.303 779.395 493.023C782.908 488.496 786.105 484.486 788.985 480.993C790.958 478.6 792.912 476.536 794.845 474.803C801.718 468.519 813.513 461.663 823.432 459.334C833.351 457.006 842.897 456.044 853.075 457.723C857.134 458.406 862.135 459.527 865.865 461.253C868.415 462.423 869.955 463.853 873.245 463.413Z" fill="#FFC02B"/>
    <path d="M823.235 525.903L817.175 537.313C816.553 538.45 815.638 539.997 814.895 541.043C810.848 546.777 807.412 550.883 804.585 553.363C795.625 561.25 784.618 564.87 771.565 564.223C764.552 563.877 756.485 562.807 747.365 561.013C747.291 560.997 747.224 560.96 747.171 560.906C747.118 560.851 747.081 560.783 747.067 560.709C747.052 560.635 747.059 560.558 747.087 560.488C747.115 560.417 747.163 560.357 747.225 560.313C751.455 557.343 753.045 551.333 754.395 546.613C757.042 537.42 759.702 528.237 762.375 519.063C762.548 519.657 762.648 519.957 762.675 519.963C762.907 520.021 763.152 519.991 763.362 519.88C763.572 519.77 763.734 519.585 763.815 519.363C765.288 515.49 767.092 511.817 769.225 508.343C771.592 504.49 774.002 500.707 776.455 496.993C778.757 493.51 783.347 487.377 785.99 484.624C787.228 486.651 788.502 493.83 791.555 497.253C796.392 488.703 805.006 475.259 815.011 473.378C820.046 479.5 825.396 504.919 825.845 512.553C825.965 514.717 826.345 519.086 823.235 525.903Z" fill="#EF4233"/>
    <path d="M333.105 629.453C324.178 630.353 316.555 630.57 310.235 630.103C310.003 630.086 309.779 630.013 309.581 629.89C309.384 629.767 309.219 629.598 309.101 629.397C308.983 629.197 308.915 628.971 308.904 628.738C308.892 628.506 308.937 628.274 309.035 628.063C316.622 611.71 328.455 599.627 344.535 591.813C353.702 587.36 362.992 584.903 372.405 584.443C397.875 583.183 423.355 592.243 444.205 606.693C444.872 607.153 445.518 607.677 446.145 608.263C446.858 608.93 446.758 609.44 445.845 609.793C442.775 610.963 439.515 611.363 436.325 612.283C423.485 616.01 415.158 618.34 411.345 619.273C401.065 621.787 392.345 623.567 385.185 624.613C376.975 625.813 368.265 626.903 359.865 627.393C352.718 627.813 344.998 628.39 336.705 629.123C335.438 629.23 334.238 629.34 333.105 629.453Z" fill="#039EDF"/>
    <path d="M713.455 654.583C715.055 657.756 715.755 661.193 715.555 664.893C715.062 673.973 711.565 680.92 705.065 685.733C694.265 693.713 679.005 691.183 671.185 680.423C665.672 672.843 664.458 664.466 667.545 655.293C669.085 650.72 672.035 647.01 676.395 644.163C684.128 639.116 692.005 638.4 700.025 642.013C706.165 644.78 710.642 648.97 713.455 654.583ZM703.29 662.88C704.344 660.923 704.396 658.531 703.436 656.229C702.475 653.926 700.58 651.903 698.168 650.605C696.973 649.961 695.688 649.515 694.385 649.292C693.082 649.069 691.786 649.072 690.573 649.303C689.359 649.533 688.251 649.986 687.312 650.635C686.373 651.284 685.621 652.117 685.1 653.086C684.046 655.042 683.994 657.435 684.954 659.737C685.915 662.039 687.81 664.062 690.222 665.361C691.416 666.004 692.702 666.45 694.005 666.674C695.308 666.897 696.604 666.894 697.817 666.663C699.031 666.433 700.138 665.98 701.078 665.331C702.017 664.682 702.769 663.849 703.29 662.88Z" fill="#02133B"/>
    <path d="M393.955 668.753C390.982 666.066 388.182 663.34 385.555 660.573C384.935 659.92 384.405 659.16 383.965 658.293C383.894 658.155 383.861 658.001 383.867 657.847C383.873 657.692 383.919 657.541 384.001 657.41C384.082 657.278 384.196 657.169 384.332 657.095C384.467 657.02 384.62 656.982 384.775 656.983C387.185 657.013 389.505 657.443 391.675 658.463C399.155 662.01 405.448 664.16 410.555 664.913C423.648 666.846 436.075 665.216 447.835 660.023C456.368 656.256 465.902 651.593 476.435 646.033C478.148 645.126 480.375 645.023 483.115 645.723C493.082 648.27 502.955 652.546 512.735 658.553C513.282 658.886 513.315 659.27 512.835 659.703C508.582 663.523 504.712 666.623 501.225 669.003C499.018 670.51 496.408 672.073 493.395 673.693C490.735 675.12 488.082 676.573 485.435 678.053C469.925 686.733 452.385 690.113 434.805 687.043C419.965 684.453 404.755 678.513 393.955 668.753Z" fill="#039EDF"/>
    <path d="M703.29 662.881C702.769 663.849 702.017 664.682 701.078 665.331C700.139 665.98 699.031 666.433 697.817 666.663C696.604 666.894 695.308 666.897 694.005 666.674C692.702 666.451 691.417 666.005 690.222 665.362C687.81 664.063 685.915 662.04 684.954 659.738C683.994 657.435 684.046 655.043 685.1 653.086C685.621 652.117 686.373 651.284 687.312 650.635C688.252 649.986 689.359 649.533 690.573 649.303C691.786 649.073 693.082 649.069 694.385 649.292C695.688 649.516 696.973 649.962 698.168 650.605C700.58 651.904 702.475 653.927 703.436 656.229C704.396 658.531 704.344 660.924 703.29 662.881Z" fill="#039EDF"/>
    <path d="M464.825 723.823C464.292 722.663 464.525 721.823 465.525 721.303C466.905 720.593 468.935 720.823 470.445 721.153C480.012 723.193 489.635 723.17 499.315 721.083C516.225 717.433 529.585 705.993 541.685 694.333C543.025 693.033 546.075 690.523 548.025 691.603C556.892 696.503 565.092 701.486 572.625 706.553C573.092 706.873 573.488 707.253 573.815 707.693C574.008 707.953 574.095 708.276 574.058 708.598C574.021 708.919 573.863 709.214 573.615 709.423C567.235 714.776 560.168 719.82 552.415 724.553C546.108 728.393 539.785 731.35 533.445 733.423C521.005 737.503 507.455 738.48 492.795 736.353C482.735 734.893 473.655 731.023 465.555 724.743C465.24 724.5 464.989 724.184 464.825 723.823Z" fill="#039EDF"/>
    <path d="M1138.28 585.734V353.703C1138.28 308.586 1160.84 286.027 1205.95 286.027H1265.9C1311.01 286.027 1333.57 308.586 1333.57 353.703V568.332L1296.83 585.734H1294.9V353.703C1294.9 331.789 1285.23 320.832 1265.9 320.832H1205.95C1186.62 320.832 1176.95 331.789 1176.95 353.703V568.332L1140.21 585.734H1138.28ZM1419.65 578C1380.98 578 1361.65 558.664 1361.65 519.992V374.973L1398.38 357.57H1400.32V519.992C1400.32 535.461 1406.76 543.195 1419.65 543.195H1464.13C1477.02 543.195 1483.46 535.461 1483.46 519.992V374.973L1520.2 357.57H1522.13V519.992C1522.13 558.664 1502.8 578 1464.13 578H1419.65ZM1598.55 578C1559.88 578 1540.54 558.664 1540.54 519.992V423.312C1540.54 384.641 1559.88 365.305 1598.55 365.305H1643.02C1651.79 365.305 1658.23 367.303 1662.36 371.299V295.695L1699.1 278.293H1701.03V519.992C1701.03 558.664 1681.7 578 1643.02 578H1598.55ZM1598.55 543.195H1643.02C1655.91 543.195 1662.36 535.461 1662.36 519.992V423.312C1662.36 407.844 1655.91 400.109 1643.02 400.109H1598.55C1585.66 400.109 1579.21 407.844 1579.21 423.312V519.992C1579.21 535.461 1585.66 543.195 1598.55 543.195ZM1741.68 322.572C1737.16 317.932 1734.91 312.389 1734.91 305.943C1734.91 299.369 1737.16 293.762 1741.68 289.121C1746.19 284.48 1751.67 282.16 1758.11 282.16C1764.56 282.16 1770.03 284.48 1774.55 289.121C1779.06 293.762 1781.31 299.369 1781.31 305.943C1781.31 312.389 1779.06 317.932 1774.55 322.572C1770.03 327.213 1764.56 329.533 1758.11 329.533C1751.67 329.533 1746.19 327.213 1741.68 322.572ZM1738.77 585.734V374.973L1775.51 357.57H1777.45V568.332L1740.71 585.734H1738.77ZM1873.2 543.195H1917.67C1930.56 543.195 1937.01 535.461 1937.01 519.992V423.312C1937.01 407.844 1930.56 400.109 1917.67 400.109H1873.2C1860.31 400.109 1853.86 407.844 1853.86 423.312V519.992C1853.86 535.461 1860.31 543.195 1873.2 543.195ZM1873.2 578C1834.53 578 1815.19 558.664 1815.19 519.992V295.695L1851.93 278.293H1853.86V371.299C1859.02 367.303 1865.46 365.305 1873.2 365.305H1917.67C1956.34 365.305 1975.68 384.641 1975.68 423.312V519.992C1975.68 558.664 1956.34 578 1917.67 578H1873.2ZM1994.09 585.734V423.312C1994.09 384.641 2013.42 365.305 2052.09 365.305H2100.43V367.238L2084.97 400.109H2052.09C2039.2 400.109 2032.76 407.844 2032.76 423.312V568.332L1996.02 585.734H1994.09ZM2142.05 543.195H2182.65C2195.54 543.195 2201.99 535.461 2201.99 519.992V493.502C2201.99 478.033 2195.54 470.299 2182.65 470.299H2142.05C2129.15 470.299 2122.71 478.033 2122.71 493.502V519.992C2122.71 535.461 2129.15 543.195 2142.05 543.195ZM2142.05 578C2103.37 578 2084.04 558.664 2084.04 519.992V493.502C2084.04 454.83 2103.37 435.494 2142.05 435.494H2182.65C2189.35 435.494 2195.8 437.428 2201.99 441.295V423.312C2201.99 407.844 2195.54 400.109 2182.65 400.109H2113.43V398.176L2128.9 365.305H2182.65C2221.32 365.305 2240.66 384.641 2240.66 423.312V568.332L2203.92 585.734H2201.99V572.199C2197.09 576.066 2190.64 578 2182.65 578H2142.05ZM2259.07 585.734V423.312C2259.07 384.641 2278.4 365.305 2317.07 365.305H2361.55C2400.22 365.305 2419.55 384.641 2419.55 423.312V568.332L2382.82 585.734H2380.88V423.312C2380.88 407.844 2374.44 400.109 2361.55 400.109H2317.07C2304.18 400.109 2297.74 407.844 2297.74 423.312V568.332L2261 585.734H2259.07ZM2495.97 578C2457.3 578 2437.96 558.664 2437.96 519.992V423.312C2437.96 384.641 2457.3 365.305 2495.97 365.305H2540.44C2579.11 365.305 2598.45 384.641 2598.45 423.312V433.561L2561.71 450.963H2559.78V423.312C2559.78 407.844 2553.33 400.109 2540.44 400.109H2495.97C2483.08 400.109 2476.63 407.844 2476.63 423.312V519.992C2476.63 535.461 2483.08 543.195 2495.97 543.195H2540.44C2553.33 543.195 2559.78 535.461 2559.78 519.992V509.744L2596.52 492.342H2598.45V519.992C2598.45 558.664 2579.11 578 2540.44 578H2495.97ZM2626.53 585.734V295.695L2663.26 278.293H2665.2V371.299C2670.87 367.303 2677.32 365.305 2684.53 365.305H2729.01C2767.68 365.305 2787.01 384.641 2787.01 423.312V568.332L2750.28 585.734H2748.34V423.312C2748.34 407.844 2741.9 400.109 2729.01 400.109H2684.53C2671.64 400.109 2665.2 407.844 2665.2 423.312V568.332L2628.46 585.734H2626.53ZM2863.43 578C2824.76 578 2805.42 558.664 2805.42 519.992V423.312C2805.42 384.641 2824.76 365.305 2863.43 365.305H2907.9C2946.57 365.305 2965.91 384.641 2965.91 423.312V433.561L2844.67 527.34C2846.48 537.91 2852.73 543.195 2863.43 543.195H2907.9C2920.79 543.195 2927.24 535.461 2927.24 519.992V509.744L2963.98 492.342H2965.91V519.992C2965.91 558.664 2946.57 578 2907.9 578H2863.43ZM2844.09 486.928L2927.05 420.025C2926.27 406.748 2919.89 400.109 2907.9 400.109H2863.43C2850.54 400.109 2844.09 407.844 2844.09 423.312V486.928ZM3036.53 578C2997.85 578 2978.52 558.664 2978.52 519.992V513.031L3015.26 495.629H3017.19V519.992C3017.19 535.461 3023.64 543.195 3036.53 543.195H3081C3093.89 543.195 3100.33 535.461 3100.33 519.992V504.717C3100.33 489.248 3093.89 481.514 3081 481.514H3044.65C3005.97 481.514 2986.64 462.113 2986.64 423.312C2986.64 384.641 3005.97 365.305 3044.65 365.305H3067.27C3105.94 365.305 3125.28 380.902 3125.28 412.098L3088.54 429.5H3086.61V423.312C3086.61 407.844 3080.16 400.109 3067.27 400.109H3044.65C3031.76 400.109 3025.31 407.844 3025.31 423.312C3025.31 438.91 3031.76 446.709 3044.65 446.709H3081C3119.67 446.709 3139.01 466.045 3139.01 504.717V519.992C3139.01 558.664 3119.67 578 3081 578H3036.53Z" fill="#039EDF"/>
</svg>
